<?xml version="1.0" encoding="UTF-8" standalone="yes"?>
<svg xmlns="http://www.w3.org/2000/svg" version="1.0" width="68.5" height="64">
	<!-- viewBox="0,0,64,64"> -->
  <defs>
		<style type="text/css">
		/*#avatar, #qrcode { transition: opacity 1s; }*/
		@media print { #avatar { opacity: 0; } }
		@media screen { #qrcode { opacity: 0; } }

		/* need to animate for ~20px between two? */
		@media screen and (max-height:236px) {
			#avatar { opacity: 1; }
			#qrcode { opacity: 0 !important; }
		}
		@media screen and (min-height:256px) {
			#avatar { opacity: 0; }
			#qrcode { opacity: 1; }
		}
		@media screen and (max-height: 48px) {
			#hideatzooms, #avatar-background { opacity: 0; }
		}

		</style>
  </defs>
  <g transform="translate(-0.2,0)">
    <g transform="translate(20.7,8)" id="avatar">
      <path d="M 0,48 0,0 48,0 48,48 z" id="avatar-background" fill="#8398b4" />
      <path d="M 10,41 8,39 8,33 6,31 5,31 4,30 3,28 2,24 2,22 4,20 6,16 8,8 l 20,0 2,3 1,2 0,5 2,7 1,2 0,1 -1,1 -1,2 -2,1 -1,3 -2,4 -2,2 z" id="avatar-face-skin" fill="#ecc0a5" />
      <path d="m 26,25 0,-1 -1,0 0,1 z m -13,-1 1,0 0,-1 -1,0 z" id="avatar-face-eyes" fill="#4899cd" />
      <path d="m 28,25 0,-1 -4,0 0,-1 5,0 0,2 z m -18,-1 0,-2 6,0 0,1 -4,0 0,1 z" id="avatar-face-eye-shade" fill="#6a3718" />
      <path d="m 13,42 0,-5 1,0 0,-3 11,0 0,8 -1,2 -2,1 -6,0 0,-1 -2,0 z" id="avatar-face-goatee" fill="#c88e69" />
      <path d="M 7,7 7.5,14 5,14 5,8.5 6,7 9,4 l 4,-4 3,0 0,4 2,0 1,1 8,0 3,1 2,3 1,1.5 0,7.5 -1,0 0,-8 -3,0 -1,-1 0,-2 z" id="avatar-face-caatinga" fill="#6d482b" />
      <path d="M 7,39 7,36 6,36 6,35 7,35 7,34 7,33 6.5,33 6,33 6,30.5 6,28 l -1,0 0,-5 -1,0 0,-2 -1,0 0,1 -1,0 0,2 1,0 0,-1 1,0 0,1 -1,0 0,4 1,0 0,2 1,0 0,1 -1,0 0,-1 -1,0 0,-1 -1,0 0,-4 -1,0 0,-4 1,0 0,-1 2,0 L 4,15 3,15 3,9 4,9 4,5 5,5 5,4 6,4 6,3 8,3 8,2 l 2,0 0,-1 2,0 0,-1 1,0 0,1 1,0 0,-1 8,0 0,1 4,0 0,1 3,0 0,1 1,0 0,1 1,0 0,1 1,0 0,2 1,0 0,2 1,0 0,2 1,0 0,6 -1,0 0,3 -1,0 0,5 1,0 0,2 -1,0 0,-1 -2,0 0,5 1,0 0,-3 2,0 0,1 -1,0 0,2 -1,0 0,2 -1,0 0,-1 -1,0 0,4 -1,0 0,3 -1,0 0,1 -1,0 0,2 -1,0 0,2 -1,0 0,1 -2,0 0,1 -8,0 0,-1 -2,0 0,-1 -1,0 0,-2 -2,0 0,-1 -1,0 0,-1 -1,0 0,-1 z m 15,6 0,-4 1,0 0,3 1,0 0,-2 1,0 0,-2 1,0 0,-2 1,0 0,-1 -1,0 0,-1 2,0 0,-1 1,0 0,-1 -1,0 0,-1 1,0 0,-2 1,0 0,-5 1,0 0,-3 -1,0 0,-2 1,0 0,-2 -1,0 0,-1 1,0 0,-2 -1,0 0,-2 1,0 0,-1 -1,0 0,-2 -1,0 0,-1 1,0 0,-1 -1,0 0,-1 -1,0 0,1 1,0 0,1 -2,0 0,-1 -7,0 0,-1 -10,0 0,1 -1,0 0,1 -1,0 0,2 1,0 0,-1 1,0 0,-1 1,0 0,1 1,0 0,-1 1,0 0,1 -1,0 0,1 -1,0 0,-1 -1,0 0,1 -1,0 0,1 -1,0 0,3 1,0 0,1 -1,0 0,1 -1,0 0,-1 1,0 0,-1 -2,0 0,2 1,0 0,1.5 0,1.5 -1,0 0,3 1,0 0,3 1,0 0,1 -1,0 0,1 1,0 0,1 -1,0 0,1 1,0 0,3 1,0 0,1 -1,0 0,2 1,0 0,1 -1,0 0,1 2,0 0,2 1,0 0,-3 -1,0 0,-4 1,0 0,3 1,0 0,2 0,2 1,0 0,1 1,0 0,2 2,0 0,1 z m -7,-2 0,-2 1,0 0,2 z m 6,-1 -1,0 0,-1 1,0 z m -3,-1 -1,0 0,-1 1,0 z m -3,-1 -1,0 0,-1 1,0 z m 4,0 0,-2 1,0 0,2 z m 3,-2 0,-1 -8,0 0,-0.5 0,-0.5 11,0 0,1 -1,0 0,1 -2,0 z m -5,-4 0,-2 1,0 0,-1 1,0 0,1 -1,0 0,2 -1,0 z m 3,0 -1,0 0,-1 1,0 z m 2,0 -1,0 0,-1 0,-1 2,0 0,-1 -1,0 0,-1 1,0 0,-1 -1,0 0,-1 -1,0 0,-1 1,0 0,-1 -1,0 0,-4 1,0 0,3 1,0 0,4 1,0 0,3 -1,0 0,1 0,1 z m -4,-4 -1,0 0,1 -1,0 0,-2 1,0 0,-1 -1,0 0,-1 1,0 0,1 1,0 0,-1 1,0 0,2 -1,0 z m 3,0 -1,0 0,-1 1,0 z m -3,-4 -1,0 0,-1 1,0 0,-2 1,0 0,2 -1,0 z m -1,-2 -1,0 0,-1 1,0 z m -10,-1 0,-2 1,0 0,-2 3,0 0,-1 1,0 0,1 4,0 0,1 2,0 0,1 -5,0 0,-1 -3,0 0,1 -2,0 0,2 z m 16,-1 0,-2 7,0 0,1 -3,0 0,1 z m 5,-8 0,-2 -1,0 0,-1 1,0 0,1 1,0 0,2 z m 5,4 0,-2 -1,0 0,2 z m 0,-3 0,-4 -1,0 0,4 z M 6,14 6,13 7,13 7,12 5,12 5,14 z M 6,11 7,11 7,10 6,10 6,9 7,9 7,7 6,7 6,9 5,9 l 0,1 1,0 z m 25,-1 1,0 0,-1 -1,0 z M 9,7 9,6 10,6 10,4 9,4 9,6 8,6 8,7 z m 19,0 0,-1 -1,0 0,-1 -2,0 0,1 -1,0 0,-1 -1,0 0,1 -1,0 0,-1 -4,0 0,-1 -1,0 0,1 -1,0 0,-1 -1,0 0,2 6,0 0,1 z m 1,0 1,0 0,-1 -1,0 z m -15,-1 0,-2 -3,0 0,1 2,0 0,1 z m 1,-4 1,0 0,-1 -1,0 z" id="avatar-face-rimjob" fill="#000" />
	<g id="hideatzooms">
		<path d="m 10,48 0,-1 -2,-2 -1,-3 0,-2 2,0 0,1 1,0 0,1 2,0 0,2 1,0 0,1 2,0 0,1 8,0 0,2 z" id="avatar-details-neck" fill="#ecc0a5" />
		<path d="m 22,11 0,1 1,0 0,-1 z m -4,0 0,1 1,0 0,-1 z m -4,1 0,1 1,0 0,-1 z m 10,0 0,1 1,0 0,-1 z m -14,1 0,1 1,0 0,-1 z m 2,0 0,1 1,0 0,-1 z m 9,1 0,1 1,0 0,-1 z m -9,1 0,1 1,0 0,-1 z m 14,0 0,1 1,0 0,-1 z m 2,0 0,1 1,0 0,-1 z m -10,0 0,1 1,0 0,-1 z m 5,0 0,1 1,0 0,-1 z m 4,2 0,1 1,0 0,-1 z m -17,11 0,1 1,0 0,-1 z m 16,1 0,1 1,0 0,-1 z m -15,1 0,1 1,0 0,-1 z m 15,1 0,1 1,0 0,-1 z m -14,1 0,1 1,0 0,-1 z m -3,0 0,1 1,0 0,-1 z m 6,1 0,1 -1,0 0,1 1,0 0,-1 1,0 0,-1 z m 11,1 0,1 1,0 0,-1 z m -1,0 -1,0 0,1 1,0 z m -18,5 -1,0 0,1 -1,0 0,1 -1,0 0,1 -1,0 0,1 -3,0 0,1 3,0 0,-1 1,0 0,-1 1,0 0,-1 1,0 0,1 1,0 0,3 1,0 0,1 1,0 0,1 1,0 0,1 1,0 0,-1 -1,0 0,-2 -2,0 0,-4 -1,0 0,-1 1,0 0,-1 z m 21,0 0,1 7,0 0,1 3,0 0,1 1,0 0,1 1,0 0,-1 -1,0 0,-1 -1,0 0,-1 -3,0 0,-1 z m 12,4 0,1 1,0 0,1 1,0 0,3 1,0 0,-3 -1,0 0,-1 -1,0 0,-1 z m -17,2 0,2 1,0 0,-2 z m 0,2 0,0 0,0 z m 0,0 -1,0 0,1 1,0 z m -5,0 0,1 1,0 0,-1 z m -6,0 0,1 1,0 0,-1 z m 4,0 -1,0 0,1 1,0 z m 4,0 0,1 1,0 0,-1 z" id="avatar-details-spots" fill="#000" />
		<path d="m 4,42 0,1 -1,0 0,1 -3,0 0,4 10,0 0,-1 -1,0 0,-1 -1,0 0,-1 -1,0 0,-3 -1,0 0,-1 -1,0 0,1 z m 23,-2 0,2 -1,0 0,2 -1,0 0,1 -1,0 0,2 -1,0 0,1 19,0 0,-3 -1,0 0,-1 -1,0 0,-1 -1,0 0,-1 -1,0 0,-1 -3,0 0,-1 z" id="avatar-details-shoulder" fill="#fff" />
	</g>
    </g>
    <g transform="matrix(1.2891892,0,0,1.2891892,7.9924998,55.529)" id="qrcode">
      <path d="m 0,-7 7,0 0,7 -7,0 z m 6,1 -5,0 0,5 5,0 z m -4,1 3,0 0,3 -3,0 z m 6,0 1,0 0,2 1,0 0,-1 1,0 0,-1 -1,0 0,-7 1,0 0,-1 -1,0 0,-1 1,0 0,-2 -1,0 0,1 -1,0 0,-1 1,0 0,-1 -1,0 0,-1 -3,0 0,-1 2,0 0,-1 -3,0 0,-1 3,0 0,-1 1,0 0,1 -1,0 0,1 1,0 0,2 1,0 0,-3 1,0 0,-1 -1,0 0,-1 1,0 0,-1 -1,0 0,-2 1,0 0,1 1,0 0,-6 -1,0 0,1 -1,0 0,2 -4,0 0,-1 3,0 0,-1 -1,0 0,-2 1,0 0,-1 -1,0 0,-1 1,0 0,-1 -1,0 0,-1 3,0 0,1 -1,0 0,1.5 0,1.5 -1,0 0,2 1,0 0,-1 1,0 0,-3 1,0 0,-3 3,0 0,1 -1,0 0,1 3,0 0,-1 0,-1 0.5,0 0.5,0 0,1 2,0 0,-1 1,0 0,1 1,0 0,-1 1,0 0,1 2,0 0,-1 0.5,0 0.5,0 0,1 3,0 0,7 1,0 0,2 1,0 0,-2 1,0 0,3 -1,0 0,2 1,0 0,-1 1,0 0,-1 1,0 0,-2 -1,0 0,-1 1,0 0,1 1,0 0,-1 1,0 0,1 -1,0 0,2 -1,0 0,1 1,0 0,1 1,0 0,1 1,0 0,3 -1,0 0,1 1,0 0,3 -1,0 0,1 1,0 0,3 -1,0 0,1 1,0 0,1 0,1 -1,0 0,-1 -1,0 0,-1 -1,0 0,1 -1,0 0,1 2,0 0,2 2,0 0,2 -1,0 0,1 1,0 0,4 -3,0 0,-1 2,0 0,-2 -1,0 0,-1 -2,0 0,1 1,0 0,1 -1,0 0,1 -1,0 0,-1 -1,0 0,2 -2,0 0,-1 -4,0 0,1 -3,0 0,-1 -1,0 0,-1 -2,0 0,1 -1,0 0,1 -1,0 0,-1 1,0 0,-1 1,0 0,-1 -1,0 0,-1 -1,0 -1,0 0,-1 -1,0 0,1 -1,0 0,-1 1,0 0,-4 -1,0 0,-1 1,0 0,-1 -3,0 0,-1 -1,0 0,5 2,0 0,1 -2,0 0,1 1,0 0,1 -1,0 0,2 -1,0 0,1 -1,0 0,1 -1,0 z m 22,3 1,0 0,-1 1,0 0,1 1,0 0,-1 -1,0 0,-1 -1,0 0,1 -2,0 0,-1 -2,0 0,2 1,0 0,-1 1,0 0,2 1,0 z m -4,-2 -1,0 0,-2 1,0 0,1 2,0 0,-2 -2,0 0,-1 -1,0 0,2 -1,0 0,-2 -4,0 0,-1 7,0 0,-1 -1,0 0,-2 1,0 0,1 3,0 0,1 -1,0 0,1 3,0 0,-1 1,0 0,-2 -1,0 0,-1 -1,0 0,-1 1,0 0,-1 1,0 0,1 0,1 3,0 0,-1 -2,0 0,-2 -1,0 -1,0 0,-1 0,-1 -2,0 0,-1 1,0 0,-1 -1,0 0,1 -1,0 0,-1 -1,0 0,1 1,0 0,1 -2,0 0,1 1,0 0,1 -1,0 0,1 3,0 0,1 -1,0 0,1 -1,0 0,-1 -2,0 0,-5 1,0 0,-2 2,0 0,-2 2,0 0,-1 -2,0 0,1 -2,0 0,-1 1,0 0,-2 1,0 0,1 1,0 0,-1 -1,0 0,-3 -4,0 0,-1 1,0 0,-1 -1,0 0,1 -1,0 0,-1 -1,0 0,1 -1,0 0,-1 -1,0 0,1 -1,0 0,-1 -1,0 0,1 -1,0 0,-1 -1,0 0,1 1,0 0,1 -1,0 0,1 -1,0 0,1 1,0 0,1 -1,0 0,2 -1,0 0,1 1,0 0,1 -1,0 0,1 -1,0 0,1 1,0 0,-1 1,0 0,-1 1,0 1,0 0,-1 1,0 0,1 1.5,0 1.5,0 0,1 2,0 0,0.5 0,0.5 -2,0 0,1 -1,0 0,1 -4,0 0,-1 1,0 0,-1 2,0 0,-1 -2,0 0,1 -2,0 0,1 -1,0 0,3 1,0 0,5 1,0 0,1 -1,0 0,2 1,0 0,1 1,0 0,-1 -1,0 0,-2 1,0 0,1 1,0 0,4 2,0 0,-1 -1,0 0,-1 2,0 0,1 2,0 0,1 -2,0 0,2 4,0 z m -5,-7 1,0 0,1 -1,0 z m 2,-2 -1,0 0,-3 2,0 0,2 -1,0 0,1 1,0 0,2 1,0 0,1 -2,0 z m 8,1 -2,0 0,-1 2,0 0,1 1,0 0,2 -1,0 z m -6,-2 1,0 0,1 -1,0 z m 6,-2 -1,0 0,-1 1,0 0,1 1,0 0,1 -1,0 z m -8,-2 -1,0 0,-1 2,0 0,2 -1,0 z m -7,-6 1,0 0,1 -1,0 z m 16,16 -3,0 0,3 3,0 z m -2,1 1,0 0,1 -1,0 z m 6,1 -3,0 0,1 3,0 z m -2,-2 -1,0 0,1 1,0 z m -20,-8 0,-2 -1,0 -1,0 0,3 1,0 0,1 1,0 0,-2 z m 22,-2 -3,0 0,1 3,0 z m -23,-2 -1,0 0,1 1,0 z m 20,0 -1,0 0,1 1,0 z m 3,-3 -1,0 0,1 -1,0 0,-2 -2,0 0,1 1,0 0,1 -1,0 0,1 3,0 0,1 1,0 z m -24,0 -1,0 0,1 1,0 z m 3,-3 -1,0 0,1 1,0 z m -1,-5 1,0 0,1 1,0 0,-1 -1,0 0,-1 -1,0 0,1 -1,0 0,1 1,0 z m 14,0 -1,0 0,1 1,0 z m -15,-3 1,0 0,-1 -1,0 0,1 -1,0 0,1 1,0 z m 8,-1 -1,0 0,1 1,0 z m -10,34 1,0 0,-2 5,0 0,1 -4,0 0,1 -1,0 0,1 -1,0 z m 4,0 1,0 0,1 -1,0 z m -7,-7 1,0 0,2 -1,0 z m -8,-4 1,0 0,4 -1,0 z m 5,3 2,0 0,-1 -1,0 0,-1 -2,0 0,-1 -1,0 0,-1 1,0 0,1 1,0 0,-1 2,0 0,1 -1,0 0,1 1,0 0,1 2,0 0,1 -2,0 0,1 -2,0 z m 7,0 1,0 0,1 -1,0 z m -10,-2 1,0 0,1 -1,0 z m 6,-1 1,0 0,1 -1,0 z m -6,-3 -2,0 0,-3 2,0 0,3 1,0 0,-1 1,0 0,1 1,0 0,-1 1,0 0,-1 1,0 0,1 1,0 0,2 -4,0 0,-1 -1,0 0,1 -1,0 z m 5,-1 -1,0 0,1 1,0 z m -4,-2 2,0 0,1 -2,0 z m 0,-2 1,0 0,1 -1,0 z m -3,-1 1,0 0,-1 -1,0 0,-1 1,0 0,-1 -1,0 0,-1 1,0 0,1 1,0 0,1 -1,0 0,1 1,0 0,2 -2,0 z m 6,-2 1,0 0,1 -1,0 z m 0,-2 1,0 0,1 -1,0 z m 2,0 1,0 0,1 -1,0 z m -5,-1 -1,0 0,-1 -2,0 0,-2 5,0 0,1 0,1 -1,0 0,-1 -2,0 0,1 1,0 0,1 1,0 0,1 -1,0 z m 3,-1 2,0 0,1 -2,0 z m 30,0 1,0 0,1 -1,0 z m -36,-10 7,0 0,7 -7,0 z m 6,1 -5,0 0,5 5,0 z m -4,1 3,0 0,3 -3,0 z m 28,-2 7,0 0,7 -7,0 z m 6,1 -5,0 0,5 5,0 z m -4,1 3,0 0,3 -3,0 z" id="svg-qrcode" fill="#000" />
    </g>
  </g>
</svg>
