<svg xmlns="http://www.w3.org/2000/svg" version="1" preserveAspectRatio="slice YMid" viewBox="8,8,60.5,48">
<defs><style type="text/css">@media print{#avatar{opacity:0}} @media screen {#qrcode{opacity:0}} @media screen and (max-height:236px){#avatar{opacity:1} #qrcode{opacity:0}} @media screen and (min-height:256px){#avatar{opacity:0} #qrcode{opacity:1}} @media screen and (max-height:48px){#tuck,#bg{opacity:0}} #avatar,#qrcode,#bg{/*firefox am cry*/-webkit-transition:opacity 1.5s} </style></defs>
<g id="avatar"><path d="m20.5 56 0-48 48 0 0 48z" id="bg" fill="#8398b4"/><path d="m30.5 49-2-2 0-6-2-2-1 0-1-1-1-2-1-4 0-2 2-2 2-4 2-8 20 0 2 3 1 2 0 5 2 7 1 2 0 1-1 1-1 2-2 1-1 3-2 4-2 2z" id="a-f-skin" fill="#ecc0a5"/><path d="m33.5 50 0-5 1 0 0-3 11 0 0 8-1 2-2 1-6 0 0-1-2 0z" id="a-f-goatee" fill="#c88e69"/><path d="m27.5 15 0.5 7-2.5 0 0-5.5 1-1.5 3-3 4-4 3 0 0 4 2 0 1 1 8 0 3 1 2 3 1 1.5 0 7.5-1 0 0-8-3 0-1-1 0-2z" id="a-f-caatinga" fill="#6d482b"/><path d="m27.5 47 0-3-1 0 0-1 1 0 0-1 0-1-0.5 0-0.5 0 0-2.5 0-2.5-1 0 0-5-1 0 0-2-1 0 0 1-1 0 0 2 1 0 0-1 1 0 0 1-1 0 0 4 1 0 0 2 1 0 0 1-1 0 0-1-1 0 0-1-1 0 0-4-1 0 0-4 1 0 0-1 2 0 0-5-1 0 0-6 1 0 0-4 1 0 0-1 1 0 0-1 2 0 0-1 2 0 0-1 2 0 0-1 1 0 0 1 1 0 0-1 8 0 0 1 4 0 0 1 3 0 0 1 1 0 0 1 1 0 0 1 1 0 0 2 1 0 0 2 1 0 0 2 1 0 0 6-1 0 0 3-1 0 0 5 1 0 0 2-1 0 0-1-2 0 0 5 1 0 0-3 2 0 0 1-1 0 0 2-1 0 0 2-1 0 0-1-1 0 0 4-1 0 0 3-1 0 0 1-1 0 0 2-1 0 0 2-1 0 0 1-2 0 0 1-8 0 0-1-2 0 0-1-1 0 0-2-2 0 0-1-1 0 0-1-1 0 0-1zm15 6 0-4 1 0 0 3 1 0 0-2 1 0 0-2 1 0 0-2 1 0 0-1-1 0 0-1 2 0 0-1 1 0 0-1-1 0 0-1 1 0 0-2 1 0 0-5 1 0 0-3-1 0 0-2 1 0 0-2-1 0 0-1 1 0 0-2-1 0 0-2 1 0 0-1-1 0 0-2-1 0 0-1 1 0 0-1-1 0 0-1-1 0 0 1 1 0 0 1-2 0 0-1-7 0 0-1-10 0 0 1-1 0 0 1-1 0 0 2 1 0 0-1 1 0 0-1 1 0 0 1 1 0 0-1 1 0 0 1-1 0 0 1-1 0 0-1-1 0 0 1-1 0 0 1-1 0 0 3 1 0 0 1-1 0 0 1-1 0 0-1 1 0 0-1-2 0 0 2 1 0 0 1.5 0 1.5-1 0 0 3 1 0 0 3 1 0 0 1-1 0 0 1 1 0 0 1-1 0 0 1 1 0 0 3 1 0 0 1-1 0 0 2 1 0 0 1-1 0 0 1 2 0 0 2 1 0 0-3-1 0 0-4 1 0 0 3 1 0 0 2 0 2 1 0 0 1 1 0 0 2 2 0 0 1zm-7-2 0-2 1 0 0 2zm6-1-1 0 0-1 1 0zm-3-1-1 0 0-1 1 0zm-3-1-1 0 0-1 1 0zm4 0 0-2 1 0 0 2zm3-2 0-1-8 0 0-0.5 0-0.5 11 0 0 1-1 0 0 1-2 0zm-5-4 0-2 1 0 0-1 1 0 0 1-1 0 0 2-1 0zm3 0-1 0 0-1 1 0zm2 0-1 0 0-1 0-1 2 0 0-1-1 0 0-1 1 0 0-1-1 0 0-1-1 0 0-1 1 0 0-1-1 0 0-4 1 0 0 3 1 0 0 4 1 0 0 3-1 0 0 1 0 1zm-4-4-1 0 0 1-1 0 0-2 1 0 0-1-1 0 0-1 1 0 0 1 1 0 0-1 1 0 0 2-1 0zm3 0-1 0 0-1 1 0zm-3-4-1 0 0-1 1 0 0-2 1 0 0 2-1 0zm-1-2-1 0 0-1 1 0zm-10-1 0-2 1 0 0-2 3 0 0-1 1 0 0 1 4 0 0 1 2 0 0 1-5 0 0-1-3 0 0 1-2 0 0 2zm16-1 0-2 7 0 0 1-3 0 0 1zm5-8 0-2-1 0 0-1 1 0 0 1 1 0 0 2zm5 4 0-2-1 0 0 2zm0-3 0-4-1 0 0 4zm-27-1 0-1 1 0 0-1-2 0 0 2zm0-3 1 0 0-1-1 0 0-1 1 0 0-2-1 0 0 2-1 0 0 1 1 0zm25-1 1 0 0-1-1 0zm-22-3 0-1 1 0 0-2-1 0 0 2-1 0 0 1zm19 0 0-1-1 0 0-1-2 0 0 1-1 0 0-1-1 0 0 1-1 0 0-1-4 0 0-1-1 0 0 1-1 0 0-1-1 0 0 2 6 0 0 1zm1 0 1 0 0-1-1 0zm-15-1 0-2-3 0 0 1 2 0 0 1zm1-4 1 0 0-1-1 0z" id="a-f-rimjob" fill="#000"/><path d="m48.5 33 0-1-4 0 0-1 5 0 0 2zm-18-1 0-2 6 0 0 1-4 0 0 1z" id="a-f-eye-shade" fill="#6a3718"/><path d="m46.5 33 0-1-1 0 0 1zm-13-1 1 0 0-1-1 0z" id="a-f-eyes" fill="#4899cd"/>
<g id="tuck"><path d="m30.5 56 0-1-2-2-1-3 0-2 2 0 0 1 1 0 0 1 2 0 0 2 1 0 0 1 2 0 0 1 8 0 0 2z" id="a-d-neck" fill="#ecc0a5"/><path d="m42.5 19 0 1 1 0 0-1zm-4 0 0 1 1 0 0-1zm-4 1 0 1 1 0 0-1zm10 0 0 1 1 0 0-1zm-14 1 0 1 1 0 0-1zm2 0 0 1 1 0 0-1zm9 1 0 1 1 0 0-1zm-9 1 0 1 1 0 0-1zm14 0 0 1 1 0 0-1zm2 0 0 1 1 0 0-1zm-10 0 0 1 1 0 0-1zm5 0 0 1 1 0 0-1zm4 2 0 1 1 0 0-1zm-17 11 0 1 1 0 0-1zm16 1 0 1 1 0 0-1zm-15 1 0 1 1 0 0-1zm15 1 0 1 1 0 0-1zm-14 1 0 1 1 0 0-1zm-3 0 0 1 1 0 0-1zm6 1 0 1-1 0 0 1 1 0 0-1 1 0 0-1zm11 1 0 1 1 0 0-1zm-1 0-1 0 0 1 1 0zm-18 5-1 0 0 1-1 0 0 1-1 0 0 1-1 0 0 1-3 0 0 1 3 0 0-1 1 0 0-1 1 0 0-1 1 0 0 1 1 0 0 3 1 0 0 1 1 0 0 1 1 0 0 1 1 0 0-1-1 0 0-2-2 0 0-4-1 0 0-1 1 0 0-1zm21 0 0 1 7 0 0 1 3 0 0 1 1 0 0 1 1 0 0-1-1 0 0-1-1 0 0-1-3 0 0-1zm12 4 0 1 1 0 0 1 1 0 0 3 1 0 0-3-1 0 0-1-1 0 0-1zm-17 2 0 2 1 0 0-2zm0 2 0 0 0 0zm0 0-1 0 0 1 1 0zm-5 0 0 1 1 0 0-1zm-6 0 0 1 1 0 0-1zm4 0-1 0 0 1 1 0zm4 0 0 1 1 0 0-1z" id="a-d-spots" fill="#000"/><path d="m24.5 50 0 1-1 0 0 1-3 0 0 4 10 0 0-1-1 0 0-1-1 0 0-1-1 0 0-3-1 0 0-1-1 0 0 1zm23-2 0 2-1 0 0 2-1 0 0 1-1 0 0 2-1 0 0 1 19 0 0-3-1 0 0-1-1 0 0-1-1 0 0-1-1 0 0-1-3 0 0-1z" id="a-d-shoulder" fill="#fff"/></g></g>
<path d="m7.79 46.5 9.02 0 0 9.02-9.02 0zm7.74 1.29-6.45 0 0 6.45 6.45 0zm-5.16 1.29 3.87 0 0 3.87-3.87 0zm7.74 0 1.29 0 0 2.58 1.29 0 0-1.29 1.29 0 0-1.29-1.29 0 0-9.02 1.29 0 0-1.29-1.29 0 0-1.29 1.29 0 0-2.58-1.29 0 0 1.29-1.29 0 0-1.29 1.29 0 0-1.29-1.29 0 0-1.29-3.87 0 0-1.29 2.58 0 0-1.29-3.87 0 0-1.29 3.87 0 0-1.29 1.29 0 0 1.29-1.29 0 0 1.29 1.29 0 0 2.58 1.29 0 0-3.87 1.29 0 0-1.29-1.29 0 0-1.29 1.29 0 0-1.29-1.29 0 0-2.58 1.29 0 0 1.29 1.29 0 0-7.74-1.29 0 0 1.29-1.29 0 0 2.58-5.16 0 0-1.29 3.87 0 0-1.29-1.29 0 0-2.58 1.29 0 0-1.29-1.29 0 0-1.29 1.29 0 0-1.29-1.29 0 0-1.29 3.87 0 0 1.29-1.29 0 0 1.93 0 1.93-1.29 0 0 2.58 1.29 0 0-1.29 1.29 0 0-3.87 1.29 0 0-3.87 3.87 0 0 1.29-1.29 0 0 1.29 3.87 0 0-1.29 0-1.29 0.64 0 0.65 0 0 1.29 2.58 0 0-1.29 1.29 0 0 1.29 1.29 0 0-1.29 1.29 0 0 1.29 2.58 0 0-1.29 0.65 0 0.64 0 0 1.29 3.87 0 0 9.02 1.29 0 0 2.58 1.29 0 0-2.58 1.29 0 0 3.87-1.29 0 0 2.58 1.29 0 0-1.29 1.29 0 0-1.29 1.29 0 0-2.58-1.29 0 0-1.29 1.29 0 0 1.29 1.29 0 0-1.29 1.29 0 0 1.29-1.29 0 0 2.58-1.29 0 0 1.29 1.29 0 0 1.29 1.29 0 0 1.29 1.29 0 0 3.87-1.29 0 0 1.29 1.29 0 0 3.87-1.29 0 0 1.29 1.29 0 0 3.87-1.29 0 0 1.29 1.29 0 0 1.29 0 1.29-1.29 0 0-1.29-1.29 0 0-1.29-1.29 0 0 1.29-1.29 0 0 1.29 2.58 0 0 2.58 2.58 0 0 2.58-1.29 0 0 1.29 1.29 0 0 5.16-3.87 0 0-1.29 2.58 0 0-2.58-1.29 0 0-1.29-2.58 0 0 1.29 1.29 0 0 1.29-1.29 0 0 1.29-1.29 0 0-1.29-1.29 0 0 2.58-2.58 0 0-1.29-5.16 0 0 1.29-3.87 0 0-1.29-1.29 0 0-1.29-2.58 0 0 1.29-1.29 0 0 1.29-1.29 0 0-1.29 1.29 0 0-1.29 1.29 0 0-1.29-1.29 0 0-1.29-1.29 0-1.29 0 0-1.29-1.29 0 0 1.29-1.29 0 0-1.29 1.29 0 0-5.16-1.29 0 0-1.29 1.29 0 0-1.29-3.87 0 0-1.29-1.29 0 0 6.45 2.58 0 0 1.29-2.58 0 0 1.29 1.29 0 0 1.29-1.29 0 0 2.58-1.29 0 0 1.29-1.29 0 0 1.29-1.29 0zm28.36 3.87 1.29 0 0-1.29 1.29 0 0 1.29 1.29 0 0-1.29-1.29 0 0-1.29-1.29 0 0 1.29-2.58 0 0-1.29-2.58 0 0 2.58 1.29 0 0-1.29 1.29 0 0 2.58 1.29 0zm-5.16-2.58-1.29 0 0-2.58 1.29 0 0 1.29 2.58 0 0-2.58-2.58 0 0-1.29-1.29 0 0 2.58-1.29 0 0-2.58-5.16 0 0-1.29 9.02 0 0-1.29-1.29 0 0-2.58 1.29 0 0 1.29 3.87 0 0 1.29-1.29 0 0 1.29 3.87 0 0-1.29 1.29 0 0-2.58-1.29 0 0-1.29-1.29 0 0-1.29 1.29 0 0-1.29 1.29 0 0 1.29 0 1.29 3.87 0 0-1.29-2.58 0 0-2.58-1.29 0-1.29 0 0-1.29 0-1.29-2.58 0 0-1.29 1.29 0 0-1.29-1.29 0 0 1.29-1.29 0 0-1.29-1.29 0 0 1.29 1.29 0 0 1.29-2.58 0 0 1.29 1.29 0 0 1.29-1.29 0 0 1.29 3.87 0 0 1.29-1.29 0 0 1.29-1.29 0 0-1.29-2.58 0 0-6.45 1.29 0 0-2.58 2.58 0 0-2.58 2.58 0 0-1.29-2.58 0 0 1.29-2.58 0 0-1.29 1.29 0 0-2.58 1.29 0 0 1.29 1.29 0 0-1.29-1.29 0 0-3.87-5.16 0 0-1.29 1.29 0 0-1.29-1.29 0 0 1.29-1.29 0 0-1.29-1.29 0 0 1.29-1.29 0 0-1.29-1.29 0 0 1.29-1.29 0 0-1.29-1.29 0 0 1.29-1.29 0 0-1.29-1.29 0 0 1.29 1.29 0 0 1.29-1.29 0 0 1.29-1.29 0 0 1.29 1.29 0 0 1.29-1.29 0 0 2.58-1.29 0 0 1.29 1.29 0 0 1.29-1.29 0 0 1.29-1.29 0 0 1.29 1.29 0 0-1.29 1.29 0 0-1.29 1.29 0 1.29 0 0-1.29 1.29 0 0 1.29 1.93 0 1.93 0 0 1.29 2.58 0 0 0.65 0 0.64-2.58 0 0 1.29-1.29 0 0 1.29-5.16 0 0-1.29 1.29 0 0-1.29 2.58 0 0-1.29-2.58 0 0 1.29-2.58 0 0 1.29-1.29 0 0 3.87 1.29 0 0 6.45 1.29 0 0 1.29-1.29 0 0 2.58 1.29 0 0 1.29 1.29 0 0-1.29-1.29 0 0-2.58 1.29 0 0 1.29 1.29 0 0 5.16 2.58 0 0-1.29-1.29 0 0-1.29 2.58 0 0 1.29 2.58 0 0 1.29-2.58 0 0 2.58 5.16 0zm-6.45-9.02 1.29 0 0 1.29-1.29 0zm2.58-2.58-1.29 0 0-3.87 2.58 0 0 2.58-1.29 0 0 1.29 1.29 0 0 2.58 1.29 0 0 1.29-2.58 0zm10.31 1.29-2.58 0 0-1.29 2.58 0 0 1.29 1.29 0 0 2.58-1.29 0zm-7.74-2.58 1.29 0 0 1.29-1.29 0zm7.74-2.58-1.29 0 0-1.29 1.29 0 0 1.29 1.29 0 0 1.29-1.29 0zm-10.31-2.58-1.29 0 0-1.29 2.58 0 0 2.58-1.29 0zm-9.02-7.74 1.29 0 0 1.29-1.29 0zm20.63 20.63-3.87 0 0 3.87 3.87 0zm-2.58 1.29 1.29 0 0 1.29-1.29 0zm7.74 1.29-3.87 0 0 1.29 3.87 0zm-2.58-2.58-1.29 0 0 1.29 1.29 0zm-25.78-10.31 0-2.58-1.29 0-1.29 0 0 3.87 1.29 0 0 1.29 1.29 0 0-2.58zm28.36-2.58-3.87 0 0 1.29 3.87 0zm-29.65-2.58-1.29 0 0 1.29 1.29 0zm25.78 0-1.29 0 0 1.29 1.29 0zm3.87-3.87-1.29 0 0 1.29-1.29 0 0-2.58-2.58 0 0 1.29 1.29 0 0 1.29-1.29 0 0 1.29 3.87 0 0 1.29 1.29 0zm-30.94 0-1.29 0 0 1.29 1.29 0zm3.87-3.87-1.29 0 0 1.29 1.29 0zm-1.29-6.45 1.29 0 0 1.29 1.29 0 0-1.29-1.29 0 0-1.29-1.29 0 0 1.29-1.29 0 0 1.29 1.29 0zm18.05 0-1.29 0 0 1.29 1.29 0zm-19.34-3.87 1.29 0 0-1.29-1.29 0 0 1.29-1.29 0 0 1.29 1.29 0zm10.31-1.29-1.29 0 0 1.29 1.29 0zm-12.89 43.83 1.29 0 0-2.58 6.45 0 0 1.29-5.16 0 0 1.29-1.29 0 0 1.29-1.29 0zm5.16 0 1.29 0 0 1.29-1.29 0zm-9.02-9.02 1.29 0 0 2.58-1.29 0zM7.79 40.06l1.29 0 0 5.16-1.29 0zm6.45 3.87 2.58 0 0-1.29-1.29 0 0-1.29-2.58 0 0-1.29-1.29 0 0-1.29 1.29 0 0 1.29 1.29 0 0-1.29 2.58 0 0 1.29-1.29 0 0 1.29 1.29 0 0 1.29 2.58 0 0 1.29-2.58 0 0 1.29-2.58 0zm9.02 0 1.29 0 0 1.29-1.29 0zm-12.89-2.58 1.29 0 0 1.29-1.29 0zm7.74-1.29 1.29 0 0 1.29-1.29 0zm-7.74-3.87-2.58 0 0-3.87 2.58 0 0 3.87 1.29 0 0-1.29 1.29 0 0 1.29 1.29 0 0-1.29 1.29 0 0-1.29 1.29 0 0 1.29 1.29 0 0 2.58-5.16 0 0-1.29-1.29 0 0 1.29-1.29 0zm6.45-1.29-1.29 0 0 1.29 1.29 0zm-5.16-2.58 2.58 0 0 1.29-2.58 0zm0-2.58 1.29 0 0 1.29-1.29 0zm-3.87-1.29 1.29 0 0-1.29-1.29 0 0-1.29 1.29 0 0-1.29-1.29 0 0-1.29 1.29 0 0 1.29 1.29 0 0 1.29-1.29 0 0 1.29 1.29 0 0 2.58-2.58 0zm7.74-2.58 1.29 0 0 1.29-1.29 0zm0-2.58 1.29 0 0 1.29-1.29 0zm2.58 0 1.29 0 0 1.29-1.29 0zm-6.45-1.29-1.29 0 0-1.29-2.58 0 0-2.58 6.45 0 0 1.29 0 1.29-1.29 0 0-1.29-2.58 0 0 1.29 1.29 0 0 1.29 1.29 0 0 1.29-1.29 0zm3.87-1.29 2.58 0 0 1.29-2.58 0zm38.68 0 1.29 0 0 1.29-1.29 0zM7.79 7.83l9.02 0 0 9.02-9.02 0zm7.74 1.29-6.45 0 0 6.45 6.45 0zm-5.16 1.29 3.87 0 0 3.87-3.87 0zm36.1-2.58 9.02 0 0 9.02-9.02 0zm7.74 1.29-6.45 0 0 6.45 6.45 0zm-5.16 1.29 3.87 0 0 3.87-3.87 0z" id="qrcode" fill="#000"/></svg>
